<?xml version="1.0" encoding="utf-8"?>
<!-- Generator: Adobe Illustrator 23.0.3, SVG Export Plug-In . SVG Version: 6.00 Build 0)  -->
<svg xmlns="http://www.w3.org/2000/svg" fill="rgba(253, 73, 86, 0.2)" xmlns:xlink="http://www.w3.org/1999/xlink" version="1.1" id="Layer_1" x="0px" y="0px" viewBox="0 0 72.1 56.2" style="enable-background:new 0 0 72.1 56.2;" xml:space="preserve" class="svg replaced-svg">
<path d="M42.6,55.6c5.7-7.7,11.2-15.1,17.5-23.6c-4.1,0-7.3,0.1-10.5,0c-6.4-0.1-9.4-3.1-9.5-9.6C40,18,40,13.5,40.1,9  c0.1-5.6,3.1-8.7,8.6-8.9c5-0.1,10-0.1,15,0c5.3,0.2,8.2,3.2,8.4,8.5c0.1,6,0.2,12-0.1,18c-0.1,1.8-0.9,3.8-2,5.4  c-4.5,6.4-9.7,12.3-13.8,19C52.8,56.4,48.5,56.8,42.6,55.6z M48.3,23.6c5.6,0,10.6,0,15.5,0c0-5.3,0-10.2,0-15.2  c-5.3,0-10.3,0-15.5,0C48.3,13.6,48.3,18.5,48.3,23.6z"></path>
<path d="M2.7,55.5c5.7-7.7,11.2-15.1,17.3-23.4c-4.4,0-7.8,0.1-11.2,0c-5.6-0.2-8.6-3.2-8.8-8.7C0,18.6,0,13.8,0.1,9  c0.1-5.5,3.2-8.7,8.7-8.8c4.8-0.1,9.7-0.1,14.5,0c5.6,0.1,8.7,3.1,8.8,8.6c0.1,6,0.2,12-0.1,18c-0.1,1.8-0.9,3.8-2,5.4  c-4.2,6-9,11.6-12.9,17.7C13.7,55.1,9.7,57.7,2.7,55.5z M8.4,8.3c0,5.5,0,10.5,0,15.6c5.3,0,10.2,0,15.3,0c0-5.3,0-10.3,0-15.6  C18.6,8.3,13.7,8.3,8.4,8.3z"></path>
</svg>
